<?xml version="1.0" encoding="utf-8"?>
<!-- Generator: Adobe Illustrator 15.0.2, SVG Export Plug-In . SVG Version: 6.00 Build 0)  -->
<!DOCTYPE svg PUBLIC "-//W3C//DTD SVG 1.1//EN" "http://www.w3.org/Graphics/SVG/1.1/DTD/svg11.dtd">
<svg version="1.1" id="Layer_1" xmlns="http://www.w3.org/2000/svg" xmlns:xlink="http://www.w3.org/1999/xlink" x="0px" y="0px"
	 width="512px" height="512px" viewBox="-0.328 0 512 512" enable-background="new -0.328 0 512 512" xml:space="preserve">
<path d="M467.534,211.863H299.81V44.138C299.81,19.763,280.032,0,255.672,0c-24.375,0-44.138,19.77-44.138,44.138v167.725H43.81
	c-24.375,0-44.138,19.77-44.138,44.138s19.763,44.138,44.138,44.138h167.725v167.725c0,24.375,19.763,44.138,44.138,44.138
	c24.368,0,44.138-19.763,44.138-44.138V300.138h167.725c24.375,0,44.138-19.777,44.138-44.138
	C511.672,231.618,491.909,211.863,467.534,211.863z"/>
</svg>
